<?xml version="1.0" encoding="utf-8"?>
<!-- Generator: Adobe Illustrator 28.0.0, SVG Export Plug-In . SVG Version: 6.00 Build 0)  -->
<svg version="1.1" id="Layer_1" xmlns="http://www.w3.org/2000/svg" xmlns:xlink="http://www.w3.org/1999/xlink" x="0px" y="0px"
	 viewBox="0 0 312.1 109.1" style="enable-background:new 0 0 312.1 109.1;" xml:space="preserve">
<style type="text/css">
	.st0{fill:#F16522;}
	.st1{opacity:0.1;}
	.st2{fill:#FFFFFF;}
</style>
<g>
	<g>
		<path class="st0" d="M287.6,0h-54c-2.8,0-5.4,0.5-7.9,1.3C216,4.6,209,13.8,209,24.5v48.2c0,15.2,13.7,26.7,28.7,24.2l54-16.4
			c11.8-2,20.4-12.2,20.4-24.2V32.3v-7.8C312.1,11,301.1,0,287.6,0z"/>
		<path class="st1" d="M287.6,0h-54c-2.8,0-5.4,0.5-7.9,1.3c0.5,5.4,2.9,10.7,7.1,14.9l34.1,34.1c10.7,10.7,28.6,9.2,37.4-3.2
			l7.9-14.9v-7.8C312.1,11,301.1,0,287.6,0z"/>
		<path class="st0" d="M259.5,93.6c-2.2,0-4.1,0.8-5.5,2.2c-1.4,1.4-2.2,3.3-2.2,5.5c0,2.2,0.8,4.1,2.2,5.5c1.4,1.4,3.3,2.3,5.5,2.3
			c2.2,0,4.1-0.9,5.5-2.3c1.4-1.4,2.3-3.3,2.3-5.5c0-2.2-0.9-4.1-2.3-5.5C263.5,94.4,261.6,93.6,259.5,93.6z"/>
		<path class="st0" d="M277.3,88.7c-2.2,0-4.1,0.8-5.5,2.2c-1.4,1.4-2.3,3.3-2.3,5.5c0,2.2,0.9,4.1,2.3,5.5c1.4,1.4,3.3,2.3,5.5,2.3
			c2.2,0,4.1-0.9,5.5-2.3s2.2-3.3,2.2-5.5c0-2.2-0.8-4.1-2.2-5.5S279.5,88.7,277.3,88.7z"/>
		<path class="st2" d="M236.8,23c-2.3,4.2-3.1,9.3-1.7,14.2l1.3,4.5c1.4,5,4.8,8.9,9,11.2c4.2,2.4,9.3,3.1,14.2,1.7l7.1-2
			c1.3-0.4,2.5-0.2,3.5,0.4c1,0.6,1.9,1.5,2.2,2.7l1.3,4.6c0.7,2.4-0.7,4.9-3.2,5.6l-32.7,9.4c-3.8,1.1-5.9,5-4.8,8.8v0
			c1.1,3.8,5,5.9,8.8,4.8l32.7-9.4c5-1.4,8.9-4.7,11.2-8.9c2.4-4.2,3.1-9.2,1.7-14.3l-1.3-4.6c-1.4-4.9-4.7-8.8-9-11.1
			c-4.2-2.3-9.2-3.1-14.3-1.7l-7.1,2c-2.4,0.7-4.9-0.7-5.6-3.2l-1.3-4.5c-0.7-2.4,0.7-4.9,3.1-5.6l29.4-8.4c3.8-1.1,5.9-5,4.8-8.8v0
			c-1.1-3.8-5-5.9-8.8-4.8L248,14C243,15.4,239.1,18.8,236.8,23z"/>
	</g>
	<g>
		<path class="st2" d="M20.8,13.1c0.8,0,1.6-0.3,2.2-0.9c0.6-0.6,0.9-1.3,0.9-2.2c0-0.8-0.3-1.6-0.9-2.2C22.4,7.3,21.6,7,20.8,7
			c-0.9,0-1.6,0.3-2.2,0.9c-0.6,0.6-0.9,1.3-0.9,2.2c0,0.9,0.3,1.6,0.9,2.2C19.1,12.8,19.9,13.1,20.8,13.1z"/>
		<path class="st2" d="M26.6,31.4c0,1-0.9,1.9-1.9,1.9H7.9c-1,0-1.9-0.9-1.9-1.9v-8.7H0v8.7c0,2.2,0.9,4.1,2.3,5.6
			c1.4,1.5,3.4,2.3,5.6,2.3h16.8c2.2,0,4.1-0.9,5.6-2.3c1.4-1.4,2.3-3.4,2.3-5.6V17.8h-6V31.4z"/>
		<path class="st2" d="M11.7,13.1c0.9,0,1.6-0.3,2.2-0.9c0.6-0.6,0.9-1.3,0.9-2.2c0-0.8-0.3-1.6-0.9-2.2C13.4,7.3,12.6,7,11.7,7
			s-1.6,0.3-2.2,0.9C9,8.4,8.7,9.2,8.7,10.1c0,0.9,0.3,1.6,0.9,2.2C10.1,12.8,10.9,13.1,11.7,13.1z"/>
		<path class="st2" d="M42,42c0,1-0.9,1.9-1.9,1.9h-5.9v6h5.9c2.1,0,4.1-0.9,5.6-2.3c1.4-1.4,2.3-3.4,2.3-5.6V17.8h-6V42z"/>
		<path class="st2" d="M81.7,19.4h-9.2c-0.6,0-1-0.2-1.4-0.6c-0.4-0.3-0.6-0.8-0.6-1.3v-2.5c0-0.5,0.2-1,0.6-1.3
			c0.4-0.4,0.8-0.6,1.4-0.6h11.1V7H72.5c-2.2,0-4.1,0.9-5.6,2.3c-1.5,1.4-2.4,3.4-2.4,5.6v2.5c0,2.2,0.9,4.1,2.4,5.6
			c1.4,1.5,3.4,2.3,5.6,2.3h9.2c0.5,0,1,0.2,1.4,0.6c0.3,0.4,0.6,0.8,0.6,1.4v4.1c0,1-0.9,1.9-1.9,1.9H64h-0.1H61
			c-0.5,0-1-0.2-1.3-0.6c-0.4-0.3-0.6-0.8-0.6-1.3V7h-6v24.3c0,2.2,0.9,4.1,2.3,5.6c1.4,1.5,3.4,2.3,5.6,2.3h2.8H64h17.7
			c2.2,0,4.1-0.9,5.6-2.3c1.4-1.4,2.3-3.4,2.3-5.6v-4.1c0-2.2-0.9-4.1-2.3-5.6C85.8,20.3,83.9,19.4,81.7,19.4z"/>
		<path class="st2" d="M117.6,31.4c0,1-0.7,1.9-1.6,1.9h-2.8H113h-2V17.7h-6V42c0,1-0.9,1.9-1.9,1.9h-5.9v6h5.9
			c2.2,0,4.1-0.9,5.6-2.3c1.4-1.4,2.3-3.4,2.3-5.6v-2.8h2h0.1h2.8c2.1,0,4-0.9,5.3-2.3c1.4-1.4,2.2-3.4,2.2-5.6V17.7h-6V31.4z"/>
		<path class="st2" d="M120.4,43.9c-0.8,0-1.6,0.3-2.2,0.9c-0.6,0.6-0.9,1.3-0.9,2.2c0,0.8,0.3,1.6,0.9,2.2c0.6,0.6,1.3,0.9,2.2,0.9
			c0.9,0,1.6-0.3,2.2-0.9c0.6-0.6,0.9-1.3,0.9-2.2c0-0.9-0.3-1.6-0.9-2.2C122.1,44.3,121.3,43.9,120.4,43.9z"/>
		<path class="st2" d="M178.3,17.7v13.6c0,1-0.9,1.9-1.9,1.9h-1.2c-0.5,0-1-0.2-1.3-0.6c-0.4-0.3-0.6-0.8-0.6-1.3V17.7h-6v13.6
			c0,1-0.9,1.9-1.9,1.9h-1.2c-1.1,0-1.9-0.9-1.9-1.9V17.7h-6v13.6c0,1.2-0.9,1.9-1.9,1.9h-1.6h-0.1h-2v-7.6c0-2.2-0.9-4.1-2.3-5.6
			c-1.4-1.4-3.4-2.3-5.6-2.3h-6.1c-2.1,0-4.1,0.9-5.6,2.3c-1.4,1.4-2.3,3.4-2.3,5.6v5.7c0,2.2,0.9,4.1,2.3,5.6
			c1.4,1.5,3.4,2.3,5.6,2.3h8.1V42c0,0.5-0.2,1-0.6,1.4c-0.4,0.4-0.9,0.6-1.4,0.6h-6.2v6h6.2c2.2,0,4.1-0.9,5.6-2.3
			c1.4-1.4,2.3-3.4,2.3-5.6v-2.8h2h0.1h1.6c1.8,0,3.5-0.6,5-1.7c1.4,1.1,3,1.7,4.9,1.7h1.2c1.9,0,3.6-0.7,4.9-1.7
			c1.4,1,3.1,1.7,4.9,1.7h1.2c2.2,0,4.1-0.9,5.6-2.3c1.4-1.4,2.3-3.4,2.3-5.6V17.7H178.3z M144.6,33.3h-8.1c-0.5,0-1-0.2-1.3-0.6
			c-0.4-0.3-0.6-0.8-0.6-1.3v-5.7c0-1,0.9-1.9,1.9-1.9h6.1c0.5,0,1,0.2,1.4,0.6c0.4,0.4,0.6,0.8,0.6,1.4V33.3z"/>
	</g>
	<g>
		<path class="st2" d="M0,85l4.3-3C5,83.1,5.9,84,7,84.6c1.2,0.6,2.5,1,4,1c0.7,0,1.3-0.1,2-0.3c0.7-0.2,1.2-0.5,1.5-0.9
			c0.3-0.4,0.5-0.9,0.5-1.4c0-0.5-0.1-0.9-0.4-1.3c-0.3-0.4-0.8-0.8-1.4-1.1c-0.6-0.3-1.5-0.7-2.6-1.1c-1.1-0.4-1.9-0.7-2.3-0.8
			c-1.8-0.7-3.2-1.4-4.1-2.2c-0.9-0.8-1.5-1.7-1.9-2.6s-0.5-1.9-0.5-2.9c0-0.8,0.2-1.7,0.5-2.6c0.3-0.9,0.9-1.7,1.6-2.4
			c0.7-0.7,1.7-1.3,2.9-1.8c1.2-0.5,2.5-0.7,4-0.7c2.1,0,3.8,0.4,5.3,1.3c1.5,0.8,2.7,1.9,3.6,3.1l-4,3c-1.1-1.4-2.7-2.1-4.8-2.1
			c-1,0-1.8,0.2-2.3,0.6c-0.6,0.4-0.9,0.9-0.9,1.6s0.2,1.2,0.6,1.6c0.4,0.4,1.3,0.8,2.8,1.3c1.4,0.5,2.5,0.9,3.1,1.1
			c2.4,0.9,4.2,2,5.2,3.3c1.1,1.2,1.6,2.8,1.6,4.7c0,1.2-0.2,2.3-0.6,3.3c-0.4,1-1,1.9-1.8,2.6c-0.8,0.7-1.9,1.3-3.1,1.7
			c-1.3,0.4-2.7,0.6-4.4,0.6c-1.7,0-3.3-0.3-4.9-0.8c-1.5-0.5-2.8-1.2-3.8-2.2C1.3,87.1,0.5,86.1,0,85z"/>
		<path class="st2" d="M23.7,82.7V71.1h5.8v11.1c0,0.6,0.1,1.2,0.3,1.8c0.2,0.6,0.6,1,1.2,1.3c0.6,0.3,1.2,0.5,2,0.5
			c0.7,0,1.4-0.2,2-0.5c0.6-0.3,1-0.8,1.2-1.3c0.2-0.6,0.3-1.2,0.3-1.8V71.1h5.8v11.6c0,1-0.2,2-0.5,3c-0.3,1-0.9,1.9-1.7,2.7
			c-0.8,0.8-1.8,1.4-3,1.9c-1.2,0.5-2.6,0.7-4.2,0.7c-1.3,0-2.5-0.2-3.6-0.5c-1.1-0.3-2.1-0.9-3-1.6c-0.9-0.7-1.5-1.6-2-2.6
			C24,85.3,23.7,84.1,23.7,82.7z"/>
		<path class="st2" d="M46.1,97.9V71.1h5.7v2.5c0.3-0.8,1-1.5,2-2.1c1.1-0.6,2.3-0.8,3.8-0.8c1.3,0,2.6,0.3,3.8,0.8
			c1.2,0.5,2.2,1.2,3.1,2.2c0.9,0.9,1.6,2,2,3.2c0.5,1.2,0.7,2.5,0.7,3.9c0,1.4-0.2,2.7-0.7,3.9c-0.5,1.2-1.2,2.3-2,3.2
			c-0.9,0.9-1.9,1.6-3.1,2.2c-1.2,0.5-2.4,0.8-3.8,0.8c-0.7,0-1.5-0.1-2.3-0.3c-0.8-0.2-1.6-0.5-2.2-1c-0.7-0.5-1.1-1-1.3-1.6v10
			H46.1z M51.5,80.8c0,1,0.3,1.9,0.9,2.7c0.6,0.8,1.3,1.4,2.1,1.7c0.8,0.3,1.5,0.5,2.2,0.5c1.4,0,2.6-0.5,3.5-1.4
			c0.9-0.9,1.4-2.1,1.4-3.4c0-1.4-0.5-2.5-1.4-3.4C59.1,76.4,58,76,56.6,76c-0.6,0-1.4,0.2-2.2,0.5c-0.8,0.3-1.5,0.9-2.1,1.7
			C51.8,78.9,51.5,79.8,51.5,80.8z"/>
		<path class="st2" d="M69.4,80.9v-0.2c0-1.5,0.3-2.9,0.8-4.1c0.5-1.3,1.3-2.4,2.2-3.3c0.9-0.9,2.1-1.6,3.3-2.1
			c1.3-0.5,2.7-0.7,4.2-0.7c1.4,0,2.8,0.3,4,0.8c1.2,0.5,2.3,1.2,3.2,2.1c0.9,0.9,1.6,2,2,3.2c0.5,1.2,0.7,2.5,0.7,3.8l-0.1,1.8
			H75.1c0.1,0.8,0.3,1.6,0.9,2.2c0.5,0.6,1.2,1,2,1.3c0.8,0.2,1.6,0.3,2.3,0.3c0.7,0,1.5-0.1,2.3-0.3c0.8-0.2,1.6-0.7,2.5-1.5
			l3.3,3.2C86,89.8,83.3,91,80,91c-1.5,0-3-0.2-4.3-0.7c-1.3-0.5-2.5-1.2-3.4-2c-0.9-0.9-1.7-1.9-2.2-3.2
			C69.6,83.8,69.4,82.4,69.4,80.9z M75.2,78.6h8.9c0-0.4-0.1-0.9-0.4-1.4c-0.3-0.5-0.8-0.9-1.5-1.3c-0.7-0.4-1.5-0.6-2.3-0.6
			c-1.2,0-2.3,0.3-3.2,0.9C75.7,76.9,75.2,77.7,75.2,78.6z"/>
		<path class="st2" d="M92.7,90.5V71.1h5.7v2.7c0.4-1,1.2-1.7,2.2-2.3c1-0.5,2.2-0.8,3.5-0.8c0.4,0,0.9,0,1.5,0.1v5.4
			c-0.6-0.1-1.2-0.2-1.9-0.2c-1.6,0-2.9,0.4-3.8,1.3c-0.9,0.9-1.4,2.1-1.4,3.7v9.5H92.7z"/>
		<path class="st2" d="M107.8,77.1c0-1.9,0.4-3.7,1.1-5.5c0.7-1.7,1.8-3.2,3.1-4.4c1.3-1.2,2.9-2.2,4.6-2.9c1.8-0.7,3.6-1,5.6-1
			c1,0,2.2,0.1,3.5,0.4c1.3,0.3,2.6,0.8,3.9,1.7c1.3,0.8,2.5,1.8,3.4,2.9l-4,3.4c-0.8-0.9-1.9-1.7-3.1-2.2c-1.2-0.5-2.4-0.8-3.8-0.8
			c-1.2,0-2.3,0.2-3.3,0.6c-1.1,0.4-2,1-2.7,1.8c-0.8,0.8-1.4,1.7-1.8,2.7c-0.4,1-0.7,2.1-0.7,3.3c0,1.2,0.2,2.3,0.7,3.3
			c0.4,1,1,1.9,1.8,2.7c0.8,0.8,1.7,1.3,2.7,1.8c1.1,0.4,2.2,0.6,3.3,0.6c1.3,0,2.6-0.3,3.8-0.8s2.2-1.3,3.1-2.3l4,3.4
			c-1.3,1.6-3,2.8-4.8,3.7c-1.9,0.9-3.9,1.3-6,1.3c-1.9,0-3.8-0.3-5.6-1c-1.8-0.7-3.3-1.6-4.6-2.9c-1.3-1.3-2.4-2.7-3.1-4.4
			C108.2,80.9,107.8,79,107.8,77.1z"/>
		<path class="st2" d="M133.9,80.8c0-1.4,0.2-2.7,0.7-3.9c0.5-1.2,1.2-2.3,2-3.2c0.9-0.9,1.9-1.6,3.1-2.2c1.2-0.5,2.4-0.8,3.8-0.8
			c0.7,0,1.4,0.1,2.3,0.3c0.8,0.2,1.6,0.5,2.2,1c0.7,0.5,1.1,1,1.3,1.6v-2.5h5.7v19.4h-5.7V88c-0.3,0.8-1,1.5-2,2.1
			c-1.1,0.6-2.3,0.8-3.8,0.8c-1.3,0-2.6-0.3-3.8-0.8c-1.2-0.5-2.2-1.2-3.1-2.2c-0.9-0.9-1.6-2-2-3.2
			C134.2,83.5,133.9,82.2,133.9,80.8z M139.7,80.8c0,1.4,0.5,2.5,1.4,3.4c0.9,0.9,2.1,1.4,3.5,1.4c0.6,0,1.4-0.2,2.2-0.5
			c0.8-0.3,1.5-0.9,2.1-1.7c0.6-0.8,0.9-1.7,0.9-2.7c0-1-0.3-1.9-0.9-2.7c-0.6-0.8-1.3-1.4-2.1-1.7c-0.8-0.3-1.5-0.5-2.2-0.5
			c-1.4,0-2.6,0.5-3.5,1.4C140.1,78.3,139.7,79.5,139.7,80.8z"/>
		<path class="st2" d="M158.9,90.5V71.1h5.7v2.7c0.4-1,1.2-1.7,2.2-2.3c1-0.5,2.2-0.8,3.5-0.8c0.4,0,0.9,0,1.5,0.1v5.4
			c-0.6-0.1-1.2-0.2-1.9-0.2c-1.6,0-2.9,0.4-3.8,1.3c-0.9,0.9-1.4,2.1-1.4,3.7v9.5H158.9z"/>
		<path class="st2" d="M175.9,90.5V76.3h-2.6v-5.2h2.6v-7.4h5.6v7.4h4.3v5.2h-4.3v14.2H175.9z"/>
	</g>
</g>
</svg>
